<?xml version="1.0" encoding="utf-8"?>
<!-- Generator: Adobe Illustrator 19.2.1, SVG Export Plug-In . SVG Version: 6.00 Build 0)  -->
<svg version="1.1" id="Capa_1" xmlns="http://www.w3.org/2000/svg" xmlns:xlink="http://www.w3.org/1999/xlink" x="0px" y="0px"
	 viewBox="0 0 60 60" style="enable-background:new 0 0 60 60;" xml:space="preserve">
<style type="text/css">
	.st0{fill:#FFFFFF;stroke:#FFFFFF;stroke-width:0.5;stroke-miterlimit:10;}
</style>
<g>
	<circle class="st0" cx="35" cy="52" r="1"/>
	<circle class="st0" cx="39" cy="52" r="1"/>
	<circle class="st0" cx="43" cy="52" r="1"/>
	<circle class="st0" cx="33" cy="33" r="1"/>
	<circle class="st0" cx="35" cy="22" r="1"/>
	<circle class="st0" cx="39" cy="22" r="1"/>
	<circle class="st0" cx="37" cy="20" r="1"/>
	<circle class="st0" cx="39" cy="18" r="1"/>
	<circle class="st0" cx="35" cy="26" r="1"/>
	<circle class="st0" cx="33" cy="24" r="1"/>
	<circle class="st0" cx="37" cy="24" r="1"/>
	<circle class="st0" cx="33" cy="36" r="1"/>
	<circle class="st0" cx="33" cy="39" r="1"/>
	<circle class="st0" cx="33" cy="42" r="1"/>
	<circle class="st0" cx="33" cy="45" r="1"/>
	<circle class="st0" cx="33" cy="48" r="1"/>
	<circle class="st0" cx="37" cy="50" r="1"/>
	<circle class="st0" cx="41" cy="50" r="1"/>
	<path class="st0" d="M24,11h-5c-0.6,0-1,0.4-1,1s0.4,1,1,1h5c0.6,0,1-0.4,1-1S24.6,11,24,11z"/>
	<path class="st0" d="M24,18H14c-0.6,0-1,0.4-1,1s0.4,1,1,1h10c0.6,0,1-0.4,1-1S24.6,18,24,18z"/>
	<path class="st0" d="M24,25H9c-0.6,0-1,0.4-1,1s0.4,1,1,1h15c0.6,0,1-0.4,1-1S24.6,25,24,25z"/>
	<path class="st0" d="M24,32H5c-0.6,0-1,0.4-1,1s0.4,1,1,1h19c0.6,0,1-0.4,1-1S24.6,32,24,32z"/>
	<path class="st0" d="M24,39H11c-0.6,0-1,0.4-1,1s0.4,1,1,1h13c0.6,0,1-0.4,1-1S24.6,39,24,39z"/>
	<path class="st0" d="M24,46h-7c-0.6,0-1,0.4-1,1s0.4,1,1,1h7c0.6,0,1-0.4,1-1S24.6,46,24,46z"/>
	<path class="st0" d="M53,54h-5v-6c0-7.6-4.1-14.4-10.7-18C43.9,26.4,48,19.6,48,12V6h5c1.7,0,3-1.3,3-3s-1.3-3-3-3H30
		c-0.6,0-1,0.4-1,1s0.4,1,1,1h23c0.6,0,1,0.4,1,1s-0.4,1-1,1h-5H30c-0.6,0-1,0.4-1,1s0.4,1,1,1h16v6c0,7.5-4.5,14.2-11.4,17.1l0,0
		l0,0l0,0c-0.1,0-0.2,0.1-0.3,0.2s-0.1,0.2-0.2,0.2c0,0,0,0-0.1,0.1l0,0c0,0.1-0.1,0.3-0.1,0.4s0,0.3,0.1,0.4l0,0
		c0,0.1,0.1,0.2,0.2,0.3c0,0,0,0,0.1,0.1s0.1,0.1,0.2,0.2c0,0,0,0,0.1,0C41.5,33.8,46,40.5,46,48v6c0-0.6-0.4-1-1-1s-1,0.4-1,1h-2
		c0-0.6-0.4-1-1-1s-1,0.4-1,1h-2c0-0.6-0.4-1-1-1s-1,0.4-1,1h-2c0-0.6-0.4-1-1-1s-1,0.4-1,1h-2c-0.6,0-1,0.4-1,1s0.4,1,1,1h18h5
		c0.6,0,1,0.4,1,1s-0.4,1-1,1H30c-0.6,0-1,0.4-1,1s0.4,1,1,1h23c1.7,0,3-1.3,3-3S54.7,54,53,54z"/>
</g>
</svg>
