<svg xmlns="http://www.w3.org/2000/svg" viewBox="0 0 489.901 489.901"><path d="M.987 250.774c1.2 2.4 3.2 4.2 5.7 5l62.6 21.5c1.1.4 2.1.5 3.2.5 4.1 0 8-2.6 9.4-6.7l49.1-143.3 2.5.9c12.7 4.5 26.9 3.7 39-2.2l6.1-3c7.3-3.5 15.8-4.1 23.4-1.4l114.2 39.4c-1.2 4.4-3.5 9.5-7.5 12.3-4.6 3.2-11.7 3.2-21 0l-51.2-17.5c-2.6-.9-5.5-.6-7.9.7s-4.2 3.6-4.9 6.2c-.1.3-7.3 26.7-29.5 38.6-14 7.5-31.5 7.7-52 .7-5.2-1.8-10.8 1-12.6 6.2-1.8 5.2 1 10.8 6.2 12.6 12 4.1 23.4 6.2 34 6.2 12.3 0 23.6-2.8 33.9-8.3 20-10.8 30.6-29.4 35.5-40.9l42 14.4c15.6 5.3 28.6 4.5 38.7-2.5 15.9-11 17-32.5 17.1-34.9.1-4.3-2.6-8.2-6.7-9.7l-122-42.1c-12.6-4.3-26.6-3.5-38.6 2.4l-6.1 3c-7.4 3.6-16 4.1-23.7 1.4l-10.1-3.6c-.6-.4-1.2-.7-1.9-.9l-62.3-21.7c-5.2-1.8-10.8 1-12.6 6.2l-52.5 153c-.8 2.4-.6 5.1.5 7.5zm67.6-144.8l43.8 15-46 134.3-43.8-15 46-134.3z"/><path d="M104.087 341.474c4.9 10 14.7 15.8 25.1 16.2 0 4.3 1 8.7 2.9 12.7 3.4 7 9.3 12.2 16.7 14.7 3.1 1.1 6.3 1.6 9.4 1.6 4.4 0 8.7-1 12.7-3l5.2-2.6c.4 3 1.3 6.1 2.7 9 3.4 7 9.3 12.2 16.7 14.7 3.1 1.1 6.3 1.6 9.4 1.6 4.4 0 8.7-1 12.7-3l113.7-55.7c25.4-12.4 48.8-28.4 69.6-47.5l25.4-23.3 58.1-28.4c4.9-2.4 6.9-8.3 4.5-13.2l-70.8-145.3c-1.2-2.4-3.2-4.2-5.7-5-2.5-.9-5.2-.7-7.6.5l-59.4 29.1c-4.9 2.4-6.9 8.3-4.5 13.2l67.8 138.6-21 19.3c-19.4 17.8-41.3 32.7-64.9 44.3l-113.7 55.7c-2.2 1.1-4.7 1.2-7.1.4-2.3-.8-4.2-2.5-5.3-4.7s-1.2-4.7-.4-7.1c.8-2.3 2.5-4.2 4.7-5.3l63.6-31.1c4.9-2.4 6.9-8.3 4.5-13.2-2.4-4.9-8.3-6.9-13.2-4.5l-63.6 31.1-30 14.7c-2.2 1.1-4.7 1.2-7.1.4-2.3-.8-4.2-2.5-5.3-4.7s-1.2-4.7-.4-7.1c.8-2.3 2.5-4.2 4.7-5.3l91.2-44.6c4.9-2.4 6.9-8.3 4.5-13.2-2.4-4.9-8.3-6.9-13.2-4.5l-102.5 50.1c-4.6 2.2-10.1.3-12.4-4.2-1.1-2.2-1.2-4.7-.4-7.1.8-2.3 2.5-4.2 4.7-5.3l40.4-19.8 52.5-25.7c4.9-2.4 6.9-8.3 4.5-13.2-2.4-4.9-8.3-6.9-13.2-4.5l-81.7 40c-4.6 2.2-10.1.3-12.4-4.2-2.2-4.6-.3-10.1 4.2-12.4l43.4-21.2c4.9-2.4 6.9-8.3 4.5-13.2s-8.3-6.9-13.2-4.5l-43.4 21.2c-14.4 7-20.4 24.5-13.3 38.9 2 4.1 4.8 7.4 8.2 10.1-6 8.1-7.4 19.6-2.5 29.5zm258.9-213.5l41.6-20.4 62.4 127.5-41.6 20.4-62.4-127.5z"/></svg>