<svg version="1.1" id="Capa_1" xmlns="http://www.w3.org/2000/svg" x="0" y="0" viewBox="0 0 60 60" xml:space="preserve"><style>.st0{fill:#fff;stroke:#fff;stroke-width:.5;stroke-miterlimit:10}</style><circle class="st0" cx="35" cy="52" r="1"/><circle class="st0" cx="39" cy="52" r="1"/><circle class="st0" cx="43" cy="52" r="1"/><circle class="st0" cx="33" cy="33" r="1"/><circle class="st0" cx="35" cy="22" r="1"/><circle class="st0" cx="39" cy="22" r="1"/><circle class="st0" cx="37" cy="20" r="1"/><circle class="st0" cx="39" cy="18" r="1"/><circle class="st0" cx="35" cy="26" r="1"/><circle class="st0" cx="33" cy="24" r="1"/><circle class="st0" cx="37" cy="24" r="1"/><circle class="st0" cx="33" cy="36" r="1"/><circle class="st0" cx="33" cy="39" r="1"/><circle class="st0" cx="33" cy="42" r="1"/><circle class="st0" cx="33" cy="45" r="1"/><circle class="st0" cx="33" cy="48" r="1"/><circle class="st0" cx="37" cy="50" r="1"/><circle class="st0" cx="41" cy="50" r="1"/><path class="st0" d="M24 11h-5c-.6 0-1 .4-1 1s.4 1 1 1h5c.6 0 1-.4 1-1s-.4-1-1-1zm0 7H14c-.6 0-1 .4-1 1s.4 1 1 1h10c.6 0 1-.4 1-1s-.4-1-1-1zm0 7H9c-.6 0-1 .4-1 1s.4 1 1 1h15c.6 0 1-.4 1-1s-.4-1-1-1zm0 7H5c-.6 0-1 .4-1 1s.4 1 1 1h19c.6 0 1-.4 1-1s-.4-1-1-1zm0 7H11c-.6 0-1 .4-1 1s.4 1 1 1h13c.6 0 1-.4 1-1s-.4-1-1-1zm0 7h-7c-.6 0-1 .4-1 1s.4 1 1 1h7c.6 0 1-.4 1-1s-.4-1-1-1zm29 8h-5v-6c0-7.6-4.1-14.4-10.7-18C43.9 26.4 48 19.6 48 12V6h5c1.7 0 3-1.3 3-3s-1.3-3-3-3H30c-.6 0-1 .4-1 1s.4 1 1 1h23c.6 0 1 .4 1 1s-.4 1-1 1H30c-.6 0-1 .4-1 1s.4 1 1 1h16v6c0 7.5-4.5 14.2-11.4 17.1-.1 0-.2.1-.3.2s-.1.2-.2.2l-.1.1c0 .1-.1.3-.1.4s0 .3.1.4c0 .1.1.2.2.3l.1.1.2.2h.1C41.5 33.8 46 40.5 46 48v6c0-.6-.4-1-1-1s-1 .4-1 1h-2c0-.6-.4-1-1-1s-1 .4-1 1h-2c0-.6-.4-1-1-1s-1 .4-1 1h-2c0-.6-.4-1-1-1s-1 .4-1 1h-2c-.6 0-1 .4-1 1s.4 1 1 1h23c.6 0 1 .4 1 1s-.4 1-1 1H30c-.6 0-1 .4-1 1s.4 1 1 1h23c1.7 0 3-1.3 3-3s-1.3-3-3-3z"/></svg>