<svg xmlns="http://www.w3.org/2000/svg" viewBox="0 0 490.1 490.1"><path d="M9.9 22.05h18.4v287.2c0 14.5 11.8 26.3 26.3 26.3h382.8c14.5 0 26.3-11.8 26.3-26.3V22.05h16.5c5.5 0 9.9-4.4 9.9-9.9s-4.4-9.9-9.9-9.9H9.9c-5.5 0-9.9 4.4-9.9 9.9s4.5 9.9 9.9 9.9zm38.2 0h395.8v287.2c0 3.6-2.9 6.5-6.5 6.5H54.6c-3.6 0-6.5-2.9-6.5-6.5V22.05zM171 470.95c-3.9 3.9-3.9 10.1 0 14 1.9 1.9 4.5 2.9 7 2.9s5.1-1 7-2.9l55.9-55.9v48.9c0 5.5 4.4 9.9 9.9 9.9s9.9-4.4 9.9-9.9v-48.9l55.6 55.6c1.9 1.9 4.5 2.9 7 2.9s5.1-1 7-2.9c3.9-3.9 3.9-10.1 0-14l-69.6-69.6v-25.8h34.5c5.5 0 9.9-4.4 9.9-9.9s-4.4-9.9-9.9-9.9H205c-5.5 0-9.9 4.4-9.9 9.9s4.4 9.9 9.9 9.9h35.9v25.8l-69.9 69.9z"/><path d="M406.9 173.75l-16.3 16.4c-3.9 3.9-3.8 10.1 0 14 1.9 1.9 4.5 2.9 7 2.9s5.1-1 7-2.9l23.3-23.5c1.9-1.9 2.9-4.4 2.9-7s-1.1-5.1-2.9-7l-23.5-23.3c-3.9-3.9-10.1-3.8-14 0-3.9 3.9-3.8 10.1 0 14l16.5 16.4zm-317.6 30.3c1.9 1.9 4.5 2.9 7 2.9s5-1 7-2.9c3.9-3.9 3.9-10.1 0-14L87 173.65l16.4-16.3c3.9-3.9 3.9-10.1 0-14s-10.1-3.9-14 0l-23.5 23.3c-1.9 1.9-2.9 4.4-2.9 7s1 5.1 2.9 7l23.4 23.4zm41.3 70.7h229c5.5 0 9.9-4.4 9.9-9.9V73.05c0-5.5-4.4-9.9-9.9-9.9h-229c-5.5 0-9.9 4.4-9.9 9.9v191.9c0 5.4 4.4 9.8 9.9 9.8zm9.9-191.8h209.2v96.1l-47.7-47.7c-3.9-3.9-10.1-3.9-14 0l-73.3 73.3-22.7-22.6c-1.9-1.9-4.4-2.9-7-2.9s-5.1 1-7 2.9l-37.5 37.5V82.95zm0 164.6l44.5-44.5 22.7 22.7c1.9 1.9 4.4 2.9 7 2.9s5.1-1 7-2.9l73.3-73.3 54.7 54.7v47.9H140.5v-7.5z"/><path d="M229.2 133.65c0-16.8-13.7-30.5-30.5-30.5s-30.5 13.7-30.5 30.5 13.7 30.5 30.5 30.5 30.5-13.7 30.5-30.5zm-41.2 0c0-5.9 4.8-10.7 10.7-10.7s10.7 4.8 10.7 10.7-4.8 10.7-10.7 10.7-10.7-4.8-10.7-10.7z"/></svg>